<?xml version="1.0" encoding="UTF-8" standalone="no"?>
<!DOCTYPE svg PUBLIC "-//W3C//DTD SVG 1.1//EN" "http://www.w3.org/Graphics/SVG/1.1/DTD/svg11.dtd">
<svg width="100%" height="100%" viewBox="0 0 212 212" version="1.1" xmlns="http://www.w3.org/2000/svg" xmlns:xlink="http://www.w3.org/1999/xlink" xml:space="preserve" xmlns:serif="http://www.serif.com/" style="fill-rule:evenodd;clip-rule:evenodd;stroke-linejoin:round;stroke-miterlimit:2;">
    <g transform="matrix(1,0,0,1,-2116,-1504)">
        <g transform="matrix(1.06,0,0,1.06,-126.96,-90.24)">
            <rect x="2116" y="1504" width="200" height="200" style="fill:rgb(235,235,235);"/>
        </g>
        <g transform="matrix(159.563133,0,0,150,2103.020431,1640.375)">
            <g id="_.-c" serif:id="./c">
                <path d="M0.3,0.01C0.272,0.01 0.25,0.002 0.233,-0.015C0.216,-0.033 0.207,-0.055 0.207,-0.082C0.207,-0.109 0.216,-0.132 0.233,-0.149C0.25,-0.166 0.272,-0.175 0.3,-0.175C0.328,-0.175 0.351,-0.166 0.367,-0.149C0.385,-0.132 0.393,-0.109 0.393,-0.082C0.393,-0.055 0.385,-0.033 0.367,-0.015C0.351,0.002 0.328,0.01 0.3,0.01" style="fill-rule:nonzero;"/>
            </g>
        </g>
        <g transform="matrix(1,0,0,1,-65,106.5)">
            <path d="M2229,1574L2281.5,1433L2301,1433L2248.5,1574L2229,1574Z"/>
        </g>
        <g transform="matrix(1,0,0,1,-83,93.75)">
            <path d="M2356.35,1559C2349.25,1559 2343.075,1557.675 2337.825,1555.025C2332.575,1552.375 2328.5,1548.625 2325.6,1543.775C2322.7,1538.925 2321.25,1533.2 2321.25,1526.6L2321.25,1505.9C2321.25,1499.3 2322.7,1493.575 2325.6,1488.725C2328.5,1483.875 2332.575,1480.125 2337.825,1477.475C2343.075,1474.825 2349.25,1473.5 2356.35,1473.5C2366.65,1473.5 2374.925,1476.175 2381.175,1481.525C2387.425,1486.875 2390.7,1494.15 2391,1503.35L2372.55,1503.35C2372.25,1499.05 2370.625,1495.725 2367.675,1493.375C2364.725,1491.025 2360.95,1489.85 2356.35,1489.85C2351.25,1489.85 2347.25,1491.225 2344.35,1493.975C2341.45,1496.725 2340,1500.65 2340,1505.75L2340,1526.6C2340,1531.7 2341.45,1535.65 2344.35,1538.45C2347.25,1541.25 2351.25,1542.65 2356.35,1542.65C2361.05,1542.65 2364.85,1541.475 2367.75,1539.125C2370.65,1536.775 2372.25,1533.45 2372.55,1529.15L2391,1529.15C2390.7,1538.35 2387.425,1545.625 2381.175,1550.975C2374.925,1556.325 2366.65,1559 2356.35,1559Z"/>
        </g>
    </g>
</svg>
